PathFileType	4	(X/Y/Z)	D:\TRACE\v60_Jaco2_6-2-23\BothDRS_Motion1_10-v60.trc
DataRate	CameraRate	NumFrames	NumMarkers	Units	OrigDataRate	OrigDataStartFrame	OrigNumFrames
100.00	100.00	      38	9	mm	100.00	4688	      7500
Frame#	Time	front left toe			Front right toe			aft left toe			aft right toe			Arm			FL body			FR body			AL Body			AR Body			
		X1	Y1	Z1	X2	Y2	Z2	X3	Y3	Z3	X4	Y4	Z4	X5	Y5	Z5	X6	Y6	Z6	X7	Y7	Z7	X8	Y8	Z8	X9	Y9	Z9	

4688	46.870	-131.27113	9.01816	-268.45895	208.52289	14.65952	-312.10416	-117.97170	34.03801	336.10953	304.97791	27.09212	315.65948	208.21394	1079.19470	-730.97858	-35.52120	571.33636	-421.33481	124.67495	566.09210	-434.51736	41.52701	575.32379	522.16699	196.24364	564.39294	509.37988	
4689	46.880	-132.01085	8.56410	-268.50183	206.70648	23.96959	-310.22083	-112.69678	43.32241	336.63205	304.61142	27.23134	315.67947	210.55725	1081.00293	-729.61688	-34.66395	571.18512	-420.79935	124.57259	565.50952	-433.95718	42.29022	575.70374	521.95917	197.16730	564.49719	509.56955	
4690	46.890	-132.51241	8.01017	-268.34003	207.68382	33.45594	-308.45572	-109.87422	52.51888	337.15228	304.19931	27.08787	315.67618	214.04430	1082.62476	-728.72449	-34.51385	570.94647	-420.36777	124.99631	565.17023	-433.65033	43.16468	575.66467	522.31244	198.14972	564.03223	509.37509	
4691	46.900	-132.71109	7.93306	-268.14560	208.22607	45.45509	-308.64429	-109.89993	65.09860	337.87619	303.89352	26.80658	315.74606	217.13394	1082.71411	-728.17096	-34.65592	570.96521	-419.97562	125.67032	565.11194	-433.57294	44.25919	575.66699	523.24188	198.29109	564.31329	510.24963	
4692	46.910	-133.10100	8.02262	-267.72568	211.59669	57.95556	-308.92285	-110.14261	77.06985	338.09204	303.67938	26.60817	315.62332	219.33034	1081.36047	-727.56659	-34.48612	570.89026	-419.56921	125.76607	564.65759	-433.12173	45.15176	575.49280	523.16486	200.04066	563.73438	510.82538	
4693	46.920	-133.68738	7.79019	-267.90695	215.40274	70.24075	-309.13818	-110.01588	90.12766	338.60324	303.46988	26.66955	315.60571	220.99388	1079.42737	-727.26202	-33.76227	570.31287	-418.92096	126.11398	564.14624	-432.65945	45.56368	575.22791	523.42926	200.97601	563.29181	510.60214	
4694	46.930	-133.93005	7.49711	-267.93311	219.44801	82.24380	-309.31613	-108.75447	102.28665	339.22729	303.15381	26.74278	315.50879	221.45071	1077.66626	-727.86273	-33.21772	569.66864	-418.60150	126.64448	563.49237	-432.28290	45.93880	575.10614	523.77881	201.49170	563.37018	511.26285	
4695	46.940	-134.74306	7.45336	-267.92160	223.24037	93.52043	-308.86435	-106.23047	113.94616	339.86948	302.33139	26.84999	315.52020	222.04367	1076.00403	-729.00378	-32.04605	568.86316	-418.04233	127.00201	562.52570	-431.98523	46.68731	575.33417	524.18512	201.85251	563.21509	511.61469	
4696	46.950	-135.46182	7.44051	-267.86533	225.77498	104.40578	-308.11945	-103.53469	124.59248	340.35815	301.98163	26.91602	315.59760	222.12196	1074.16431	-730.08398	-32.25309	568.52490	-418.24359	127.70010	561.80579	-431.95053	47.06467	575.81458	524.41418	202.12880	562.96997	511.76199	
4697	46.960	-135.99664	7.43847	-268.02643	227.77431	114.09647	-307.34518	-100.89671	134.09706	341.11594	301.52795	26.83173	315.53125	222.81808	1072.35974	-730.69324	-31.61368	567.87848	-418.07635	128.53778	560.68622	-431.37949	47.73754	576.32935	525.09711	202.59421	563.42181	512.04254	
4698	46.970	-136.37291	7.36368	-267.92853	230.43665	121.75238	-306.29037	-99.52963	142.91252	341.39569	300.66269	26.93388	315.52759	223.41087	1070.30334	-731.23334	-30.63788	566.87213	-417.47375	128.79875	559.61798	-431.31506	48.16887	576.57489	524.31213	203.10295	563.77435	512.08374	
4699	46.980	-136.78464	7.10717	-268.05878	234.06818	126.59659	-304.88068	-97.49964	149.76019	341.72122	300.39294	26.99684	315.53061	225.09390	1068.63867	-732.33374	-30.26704	565.89142	-417.32086	129.04573	558.51129	-431.27905	48.58892	577.51697	524.80811	203.75574	564.59900	512.50446	
4700	46.990	-137.09821	7.04265	-268.10327	237.84134	128.96414	-303.98950	-96.23963	153.88341	342.32938	299.68774	27.00264	315.49680	226.76653	1066.78918	-732.97974	-30.06783	564.73224	-416.86676	129.10609	557.44696	-431.06213	49.26973	578.10461	525.52917	203.90063	565.22394	512.49756	
4701	47.000	-137.94269	6.77896	-267.93512	241.81885	128.45065	-302.68320	-94.39874	154.30408	343.45865	299.43289	27.09958	315.48880	227.68602	1065.04028	-733.68219	-30.86625	564.68280	-417.35556	129.24525	556.55304	-431.00983	50.27018	578.80487	525.11060	204.51091	565.62939	512.62506	
4702	47.010	-138.62263	6.77702	-267.78989	245.39244	125.65713	-301.47232	-92.56526	152.22859	345.00278	298.96188	27.13808	315.36548	229.02502	1063.38831	-734.43909	-30.65375	564.06274	-417.26254	129.44379	555.85553	-431.06924	51.07553	579.71838	525.77087	205.82643	566.09827	512.53558	
4703	47.020	-139.28755	6.75769	-267.75110	247.57854	120.85218	-300.92627	-90.03559	148.01184	346.34152	298.25488	27.04369	315.25037	229.93369	1062.09534	-735.19086	-30.42824	563.62567	-417.14694	129.54126	555.32141	-431.00970	51.76526	580.67627	525.73737	206.48596	566.65948	512.45782	
4704	47.030	-139.48964	6.70622	-267.74371	249.36859	115.28047	-300.92099	-87.08730	143.05225	347.56976	297.81973	27.16030	315.31128	230.38933	1060.71228	-735.84406	-30.37695	563.36823	-417.26526	129.87276	554.77777	-431.24359	52.43906	581.10809	524.65289	207.67580	567.16919	512.86346	
4705	47.040	-140.02975	6.55235	-267.84671	251.00841	108.49890	-301.02438	-83.77885	137.06398	348.39249	297.20645	27.09367	315.21069	231.54941	1059.89709	-736.45612	-29.93968	562.99323	-417.31192	129.66702	553.85303	-431.26160	53.08093	581.65106	524.41510	207.34633	567.46344	511.50397	
4706	47.050	-140.87677	6.79029	-267.78180	252.84154	100.52979	-301.50641	-81.09763	129.53662	348.60764	296.55344	27.16929	315.12427	231.87236	1058.94580	-737.08710	-29.41415	562.52185	-417.59213	129.85432	553.34558	-431.52246	53.78432	582.07593	524.10162	208.41858	567.49011	511.26334	
4707	47.060	-141.48683	6.89706	-267.69040	255.54581	91.77377	-302.34341	-78.05779	120.71726	348.64673	295.88455	27.19155	315.02997	232.44398	1058.22266	-737.78070	-29.56786	562.28833	-417.94589	130.62933	552.82520	-432.02780	54.26187	582.64301	523.73773	209.46315	568.07867	511.17419	
4708	47.070	-142.10341	6.80688	-267.81696	258.45432	82.45242	-303.76987	-76.22369	111.64458	347.71753	295.44485	27.07689	315.04700	232.71991	1057.24963	-738.38983	-29.33564	561.95575	-418.39587	130.04416	552.03912	-432.05020	55.19274	583.21503	523.12817	210.08826	568.40057	510.75543	
4709	47.080	-142.50557	6.73285	-267.99533	261.92297	73.53256	-305.40320	-73.58631	101.25128	346.98920	294.71417	26.98773	314.91452	233.12302	1055.87805	-739.40979	-29.14071	561.71765	-418.98645	130.70088	552.05408	-433.56973	55.84094	583.59308	522.65320	210.99309	568.69598	510.11676	
4710	47.090	-142.91811	6.46841	-268.00732	265.09903	64.87963	-307.11185	-71.32552	90.88100	345.93851	294.19669	26.95157	314.75974	233.46513	1055.04358	-740.16840	-28.88212	561.49237	-419.43719	131.39093	551.56598	-433.76477	56.46101	583.82605	521.95441	211.30534	568.86487	509.40613	
4711	47.100	-143.81964	6.31224	-268.01404	267.45386	57.64629	-309.08624	-64.83247	81.56046	344.24951	293.93802	26.97117	314.71851	233.88843	1053.90771	-741.05798	-28.23203	561.03955	-419.90207	130.90475	550.89240	-434.26630	57.20424	584.08569	521.36523	212.01166	569.10083	508.67941	
4712	47.110	-144.63153	6.31473	-267.90082	270.20831	50.44194	-311.21240	-62.55433	74.35506	341.82233	292.97534	26.89205	314.62579	233.62817	1053.15369	-741.59076	-27.69257	560.15137	-420.73740	131.02515	550.35712	-434.58606	57.86994	584.13141	520.50793	213.00185	569.27740	507.91510	
4713	47.120	-145.09471	6.29396	-267.93228	271.80478	42.83564	-313.23782	-60.10776	64.71906	339.50830	292.43173	26.80771	314.57755	233.17755	1052.39490	-742.34723	-27.59157	559.81067	-421.72809	132.27260	550.19690	-436.51285	58.50543	584.36786	519.51434	213.67561	569.33795	506.55450	
4714	47.130	-145.70430	6.36287	-268.05527	273.96014	34.79387	-315.08914	-58.40688	55.47812	337.48312	291.36188	26.68512	314.53976	232.47118	1052.06311	-743.29218	-26.63580	559.57465	-422.37216	132.56841	550.07947	-437.16287	59.63334	584.36658	518.65283	214.06778	569.62274	505.55139	
4715	47.140	-146.21315	6.53615	-268.21152	275.47397	26.89415	-317.06509	-56.90991	46.93550	335.56293	291.18448	26.82590	314.58539	231.73972	1052.00476	-744.19965	-26.18736	559.55414	-423.71033	133.30444	550.09521	-438.73523	60.22100	584.50330	517.49896	215.33224	569.78473	504.58591	
4716	47.150	-147.18010	6.62612	-268.26385	276.41092	20.52613	-319.31494	-55.81486	40.03551	333.46136	290.47076	26.46585	314.47040	230.67169	1052.18262	-745.09106	-25.94997	559.43286	-425.05630	133.67491	549.96234	-439.95563	61.01710	584.56689	516.01831	216.11087	569.79230	503.07886	
4717	47.160	-147.89275	6.65216	-268.22391	277.22131	14.70880	-322.03152	-54.31627	33.29443	331.06406	289.87234	26.41141	314.38693	229.08182	1052.74121	-746.20111	-25.92031	559.32690	-426.57666	134.35815	549.99658	-441.32446	61.72520	584.45557	514.79071	217.15541	570.00433	501.62152	
4718	47.170	-148.33803	6.64901	-268.27264	278.00940	8.95660	-325.05777	-53.21111	27.60163	328.03812	289.10205	26.24408	314.27692	228.00169	1053.47278	-746.97437	-24.96481	559.14221	-428.03333	134.30591	550.22906	-442.92007	62.77415	584.37225	513.31598	217.52139	570.05530	500.01773	
4719	47.180	-148.64993	6.73721	-268.27634	277.52884	6.85980	-327.60352	-54.02930	26.02689	324.78751	288.77643	26.14717	314.13895	226.39606	1054.11670	-748.02173	-25.18464	559.23267	-429.77887	134.88211	550.27545	-444.62024	63.58287	584.44824	511.54727	219.01935	570.20819	498.49307	
4720	47.190	-149.24582	6.93616	-268.28674	277.16113	3.94336	-327.68723	-55.54637	24.74576	324.78363	287.61670	26.31133	314.04257	225.09332	1054.96765	-749.18457	-24.95324	559.32904	-431.12875	134.85121	550.56543	-446.40698	64.98459	585.50122	509.75961	219.80949	571.34320	496.37772	
4721	47.200	-149.70268	7.22184	-268.19336	277.11523	4.16334	-328.22586	-56.66799	25.85966	325.54672	287.07410	26.57913	313.80801	224.03535	1055.73840	-751.04889	-24.32213	559.45923	-432.32642	134.47701	550.81097	-447.70712	66.06856	587.37512	508.11053	220.93338	572.84003	494.02896	
4722	47.210	-150.60481	7.73172	-268.68399	275.34766	3.74376	-328.26828	-56.53193	27.99774	326.00067	286.40131	27.03308	313.38928	222.63600	1056.25195	-753.06866	-25.03070	560.64069	-434.31357	133.83539	551.71332	-449.08157	66.80965	589.02820	506.33722	222.09917	575.09045	492.70584	
4723	47.220	-148.15376	11.14313	-270.38919	274.91357	2.71251	-328.75925	-55.91654	26.29319	324.75253	285.25186	30.58034	312.34100	221.15234	1056.69775	-754.69568	-24.91458	561.16949	-435.61453	134.33546	552.73505	-451.18588	68.19202	590.83624	505.84567	223.05370	576.35132	491.07489	
4724	47.230	-144.18979	14.82161	-267.48349	274.44168	2.65101	-328.81223	-57.41962	26.02903	323.89230	282.41147	34.60476	316.49118	218.82480	1057.43677	-755.99402	-24.53053	561.76001	-436.49088	134.52121	553.95544	-453.12405	68.74065	591.98059	504.32217	223.52052	577.41754	489.28146	
4725	47.240	-139.34261	20.82086	-264.86221	273.35083	2.21097	-329.15585	-57.75909	26.56629	324.99435	278.65735	42.10680	319.01895	216.42326	1058.65857	-756.68341	-24.96531	562.30273	-438.16614	134.55893	554.05902	-454.16763	69.47481	592.70813	502.15994	224.14563	578.58881	487.94989	
